<?xml version="1.0" encoding="UTF-8"?>
<svg width="145px" height="90px" viewBox="0 0 174 55" version="1.1" xmlns="http://www.w3.org/2000/svg" xmlns:xlink="http://www.w3.org/1999/xlink">
    <!-- Generator: Sketch 53 (72520) - https://sketchapp.com -->
    <title>分组 copy@1x</title>
    <desc>Created with Sketch.</desc>
    <defs>
        <polygon id="path-1" points="0.202430677 0.1065625 8.12321155 0.1065625 8.12321155 15.5079031 0.202430677 15.5079031"></polygon>
        <path d="M-2.00682816e-10,20.471 L0.00792629462,35.6479062 C0.00896015916,37.2205625 1.14000797,38.5670312 2.69287251,38.8427187 L2.69287251,38.8427187 L16.249249,41.25 L16.249249,38.4982812 C16.249249,37.0689687 15.1978088,35.8562187 13.7796912,35.649625 L13.7796912,35.649625 L9.30271315,34.9971875 C7.70435857,34.7644687 6.51920518,33.397375 6.51920518,31.7862187 L6.51920518,31.7862187 L6.51920518,23.0879687 C6.51920518,21.745625 7.75915339,20.7453125 9.07491833,21.025125 L9.07491833,21.025125 L17.3858108,22.793375 C20.2551295,23.403875 23.2216315,23.403875 26.0916394,22.793375 L26.0916394,22.793375 L34.401498,21.025125 C35.7176076,20.7453125 36.9572112,21.7459687 36.9572112,23.0879687 L36.9572112,23.0879687 L36.9572112,31.7862187 C36.9572112,33.397375 35.7724024,34.7644687 34.1743924,34.9975312 L34.1743924,34.9975312 L29.6967251,35.649625 C28.2789522,35.8562187 27.227512,37.0693125 27.227512,38.4982812 L27.227512,38.4982812 L27.227512,41.25 L40.7845777,38.8427187 C42.336753,38.5670312 43.4674562,37.2233125 43.4674562,35.6503125 L43.4674562,35.6503125 C43.4678008,32.24925 43.4681454,27.468375 43.4698685,21.1083125 L43.4698685,21.1083125 C43.4719363,11.1467812 36.7345857,2.759625 27.4973506,0.22034375 L27.4973506,0.22034375 L27.0982789,3.150125 C29.7684064,4.89775 31.537004,7.909 31.537004,11.325875 L31.537004,11.325875 C31.537004,16.7151875 27.1413566,21.0997187 21.7383805,21.0997187 L21.7383805,21.0997187 C16.3354044,21.0997187 11.9401016,16.7151875 11.9401016,11.325875 L11.9401016,11.325875 C11.9401016,7.909 13.7083546,4.89775 16.3788267,3.150125 L16.3788267,3.150125 L15.9573546,0.05740625 C6.78732072,2.3436875 -0.0048247014,10.6156875 -2.00682816e-10,20.471" id="path-3"></path>
        <linearGradient x1="49.9997879%" y1="0.54075455%" x2="49.9997879%" y2="99.7082146%" id="linearGradient-5">
            <stop stop-color="#04D4FF" offset="0%"></stop>
            <stop stop-color="#01A3FF" offset="100%"></stop>
        </linearGradient>
    </defs>
    <g id="Page-1" stroke="none" stroke-width="1" fill="none" fill-rule="evenodd">
        <g id="我的课程切图" transform="translate(-36.000000, -30.000000)">
            <g id="分组-copy" transform="translate(36.000000, 30.000000)">
                <g id="分组" transform="translate(13.440239, 0.237187)">
                    <path d="M15.2611502,46.7135625 C15.0144012,46.7135625 14.7676522,46.619375 14.5794888,46.4316875 L11.3414251,43.2021562 C11.1604988,43.0220312 11.0588355,42.7772812 11.0588355,42.521875 C11.0588355,42.2668125 11.1604988,42.0220625 11.3414251,41.8419375 L14.6428992,38.5488125 C15.0192259,38.1734375 15.6298952,38.1734375 16.0062219,38.5488125 C16.3828932,38.9245312 16.3828932,39.5333125 16.0062219,39.9090312 L13.3867538,42.521875 L15.9428116,45.0714687 C16.3194829,45.4471875 16.3194829,46.0559687 15.9428116,46.4316875 C15.7546482,46.619375 15.5078992,46.7135625 15.2611502,46.7135625" id="Fill-1" fill="#1EC6F5"></path>
                    <path d="M1.27158446,46.7135625 C1.02483546,46.7135625 0.778086454,46.619375 0.589923108,46.4316875 C0.213251793,46.0559687 0.213251793,45.4471875 0.589923108,45.0714687 L3.20973586,42.458625 L0.653333466,39.9090312 C0.277006773,39.5333125 0.277006773,38.9245312 0.653333466,38.5488125 C1.03000478,38.1734375 1.64032948,38.1734375 2.0170008,38.5488125 L5.25506454,41.7783437 C5.43599084,41.9584687 5.53730956,42.2032187 5.53730956,42.458625 C5.53730956,42.7136875 5.43599084,42.9584375 5.25506454,43.1385625 L1.95324582,46.4316875 C1.76508247,46.619375 1.51833347,46.7135625 1.27158446,46.7135625" id="Fill-3" fill="#1EC6F5"></path>
                    <g transform="translate(4.135458, 0.000000)">
                        <mask id="mask-2" fill="white">
                            <use xlink:href="#path-1"></use>
                        </mask>
                        <g id="Clip-6"></g>
                        <path d="M4.16282112,14.9585906 C5.29559203,14.9585906 6.38321753,15.1534969 7.39606016,15.5079031 L8.12321155,10.1735906 L4.16282112,0.106528125 L0.202430677,10.1735906 L0.929582072,15.5079031 C1.9424247,15.1534969 3.0300502,14.9585906 4.16282112,14.9585906" id="Fill-5" fill="#D3D3D3" mask="url(#mask-2)"></path>
                    </g>
                    <path d="M12.7335582,24.1907188 C12.1580402,24.4258437 11.5018809,24.1529063 11.2658151,23.5805625 C10.7950622,22.4382813 9.69123944,21.70025 8.45473745,21.70025 C6.77884303,21.70025 5.4151757,23.060125 5.4151757,24.732125 C5.4151757,26.4037813 6.77884303,27.764 8.45473745,27.764 C9.45930916,27.764 10.3984028,27.2686562 10.966339,26.4391875 C11.3164745,25.9276875 12.0157116,25.7956875 12.528853,26.145625 C13.0416498,26.494875 13.1732952,27.1926875 12.8231598,27.7041875 C11.8361637,29.1462187 10.2030024,30.0069688 8.45473745,30.0069688 C5.53923944,30.0069688 3.16686494,27.6405938 3.16686494,24.732125 C3.16686494,21.8236563 5.53923944,19.4572813 8.45473745,19.4572813 C10.6065542,19.4572813 12.526096,20.7408437 13.3452614,22.7266875 C13.5816717,23.299375 13.3076976,23.9549062 12.7335582,24.1907188 M8.29827928,17.20125 C4.12870359,17.20125 0.748311155,20.5730938 0.748311155,24.732125 C0.748311155,28.8915 4.12870359,32.263 8.29827928,32.263 C12.4681996,32.263 15.8482474,28.8915 15.8482474,24.732125 C15.8482474,20.5730938 12.4681996,17.20125 8.29827928,17.20125" id="Fill-7" fill="#FF6A29"></path>
                    <path d="M49.8112835,17.11215 L49.8112835,17.11215 C48.3066659,19.5874937 46.5804568,21.9219 44.6540225,24.0871812 L43.8376141,25.00465 L50.5005265,24.6609 L50.3836998,24.8259 C48.7401998,27.1493062 46.9616082,29.3747438 45.0568851,31.490525 L44.7567197,31.8243062 L50.2251739,31.4805562" id="Stroke-9" stroke="#0266A3" stroke-width="2.40625" stroke-linecap="round" stroke-linejoin="round"></path>
                    <path d="M44.0675112,37.4206937 L49.8805869,36.3894437" id="Stroke-11" stroke="#0266A3" stroke-width="2.40625" stroke-linecap="round" stroke-linejoin="round"></path>
                    <path d="M57.9648562,23.2800906 L66.8698761,23.2800906 C68.0119518,23.2800906 68.9376052,22.3567781 68.9376052,21.2175906 L68.9376052,18.0169344 L54.233639,18.0169344 L54.233639,32.2959656 C54.233639,34.5853406 53.6984418,36.8430906 52.6704359,38.8901219 L51.7640813,40.6948094" id="Stroke-13" stroke="#0266A3" stroke-width="2.40625" stroke-linecap="round" stroke-linejoin="round"></path>
                    <path d="M61.0306781,13.7202312 L61.8729331,16.65895" id="Stroke-15" stroke="#0266A3" stroke-width="2.40625" stroke-linecap="round" stroke-linejoin="round"></path>
                    <polyline id="Stroke-17" stroke="#0266A3" stroke-width="2.40625" stroke-linecap="round" stroke-linejoin="round" points="57.6776486 40.6946375 57.6776486 27.3760437 68.9374673 27.3760437 68.9374673 40.6946375"></polyline>
                    <path d="M58.1942707,35.2935687 L68.9375018,35.2935687" id="Stroke-19" stroke="#0266A3" stroke-width="2.0625" stroke-linecap="round" stroke-linejoin="round"></path>
                    <path d="M61.5601201,30.7675844 L61.5601201,40.6947406" id="Stroke-21" stroke="#0266A3" stroke-width="2.0625" stroke-linecap="round" stroke-linejoin="round"></path>
                    <path d="M93.7577291,29.0486625 L93.7577291,40.2827562" id="Stroke-23" stroke="#0266A3" stroke-width="2.40625" stroke-linecap="round" stroke-linejoin="round"></path>
                    <path d="M64.909152,30.7675844 L64.909152,40.6947406" id="Stroke-25" stroke="#0266A3" stroke-width="2.0625" stroke-linecap="round" stroke-linejoin="round"></path>
                    <path d="M76.3470367,18.3703437 L76.9197976,18.2967813 C79.0306044,18.0252187 81.116943,17.5900313 83.1598594,16.9953437" id="Stroke-27" stroke="#0266A3" stroke-width="2.40625" stroke-linecap="round" stroke-linejoin="round"></path>
                    <path d="M75.3130687,25.2360281 L84.1939651,25.2360281" id="Stroke-29" stroke="#0266A3" stroke-width="2.40625" stroke-linecap="round" stroke-linejoin="round"></path>
                    <path d="M79.7534135,21.3972687 L79.7534135,40.28255" id="Stroke-31" stroke="#0266A3" stroke-width="2.40625" stroke-linecap="round" stroke-linejoin="round"></path>
                    <path d="M75.2555859,35.7715531 L76.6099484,32.3711781 C77.3470938,30.5207719 77.9315719,28.6133031 78.3571795,26.6680219 L78.3571795,26.6680219" id="Stroke-33" stroke="#0266A3" stroke-width="2.40625" stroke-linecap="round" stroke-linejoin="round"></path>
                    <path d="M81.9182914,29.1657438 L83.8492058,32.4334312" id="Stroke-35" stroke="#0266A3" stroke-width="2.40625" stroke-linecap="round" stroke-linejoin="round"></path>
                    <path d="M87.9976906,23.5068969 L87.9976906,16.7305531 L99.5176986,16.7305531 L99.5176986,21.4443969 C99.5176986,22.5835844 98.5920452,23.5068969 97.4499695,23.5068969 L91.7888719,23.5068969" id="Stroke-37" stroke="#0266A3" stroke-width="2.40625" stroke-linecap="round" stroke-linejoin="round"></path>
                    <path d="M87.2533082,27.7881312 L100.262081,27.7881312" id="Stroke-39" stroke="#0266A3" stroke-width="2.40625" stroke-linecap="round" stroke-linejoin="round"></path>
                    <path d="M87.5979641,34.0354094 L99.917494,34.0354094" id="Stroke-41" stroke="#0266A3" stroke-width="2.40625" stroke-linecap="round" stroke-linejoin="round"></path>
                    <path d="M86.5639962,40.2826531 L100.9516,40.2826531" id="Stroke-43" stroke="#0266A3" stroke-width="2.40625" stroke-linecap="round" stroke-linejoin="round"></path>
                    <path d="M117.184721,17.11215 L117.184721,34.4612125 C117.184721,36.6443687 116.298699,38.7343688 114.728948,40.2554625 L114.701033,40.2826187" id="Stroke-45" stroke="#0266A3" stroke-width="2.40625" stroke-linecap="round" stroke-linejoin="round"></path>
                    <path d="M110.234842,23.0662781 L110.234842,23.0662781 C109.54422,25.4649656 108.700242,27.8172469 107.708077,30.1083406 L106.18037,33.6359031" id="Stroke-47" stroke="#0266A3" stroke-width="2.40625" stroke-linecap="round" stroke-linejoin="round"></path>
                    <path d="M124.010604,23.0662781 L124.010604,23.0662781 C125.160606,25.4656531 126.159664,27.9337781 127.002608,30.4565594 L128.065076,33.6359031" id="Stroke-49" stroke="#0266A3" stroke-width="2.40625" stroke-linecap="round" stroke-linejoin="round"></path>
                    <path d="M133.726657,20.2907031 L136.196559,24.5556094" id="Stroke-51" stroke="#0266A3" stroke-width="2.40625" stroke-linecap="round" stroke-linejoin="round"></path>
                    <path d="M133.267173,35.7265562 L134.987179,33.8648062 C136.483181,32.2457437 137.838232,30.5022437 139.037515,28.6539 L139.64336,27.7199312" id="Stroke-53" stroke="#0266A3" stroke-width="2.40625" stroke-linecap="round" stroke-linejoin="round"></path>
                    <path d="M139.643498,17.11215 L139.643498,40.2826187" id="Stroke-55" stroke="#0266A3" stroke-width="2.40625" stroke-linecap="round" stroke-linejoin="round"></path>
                    <path d="M150.250982,14.420175 L150.250982,14.420175 C148.485831,16.6648625 146.453253,18.6864562 144.19805,20.4406125 L143.490887,20.9906125" id="Stroke-57" stroke="#0266A3" stroke-width="2.40625" stroke-linecap="round" stroke-linejoin="round"></path>
                    <path d="M148.282918,17.11215 L158.022611,17.11215 L157.366796,17.8921188 C153.986749,21.9115875 149.705171,25.0809625 144.868408,27.1431187 L144.868408,27.1431187" id="Stroke-59" stroke="#0266A3" stroke-width="2.40625" stroke-linecap="round" stroke-linejoin="round"></path>
                    <path d="M146.635386,19.8961469 L148.545278,21.9050219" id="Stroke-61" stroke="#0266A3" stroke-width="2.40625" stroke-linecap="round" stroke-linejoin="round"></path>
                    <path d="M143.250375,30.2785313 L159.346268,30.2785313" id="Stroke-63" stroke="#0266A3" stroke-width="2.40625" stroke-linecap="round" stroke-linejoin="round"></path>
                    <path d="M155.208156,25.8604156 L155.208156,34.2795406 C155.208156,36.5689156 154.234256,38.7506969 152.528379,40.2827906 L152.528379,40.2827906" id="Stroke-65" stroke="#0266A3" stroke-width="2.40625" stroke-linecap="round" stroke-linejoin="round"></path>
                    <path d="M146.34842,33.4605563 L149.60785,36.9623375" id="Stroke-67" stroke="#0266A3" stroke-width="2.40625" stroke-linecap="round" stroke-linejoin="round"></path>
                    <path d="M53.9773096,47.2499844 L53.9773096,47.2499844 C53.1684829,47.2499844 52.5126681,47.9041406 52.5126681,48.7109219 L52.5126681,50.5558281 C52.5126681,51.3626094 53.1684829,52.0167656 53.9773096,52.0167656 L53.9773096,52.0167656 C54.7861363,52.0167656 55.441951,51.3626094 55.441951,50.5558281 L55.441951,48.7109219 C55.441951,47.9041406 54.7861363,47.2499844 53.9773096,47.2499844 Z" id="Stroke-69" stroke="#0266A3" stroke-width="0.825"></path>
                    <path d="M94.7291137,52.0168 L94.7291137,48.7109562 C94.7291137,47.904175 94.073299,47.2500187 93.2644723,47.2500187 C92.4556456,47.2500187 91.7998309,47.904175 91.7998309,48.7109562 L91.7998309,52.0168" id="Stroke-71" stroke="#0266A3" stroke-width="0.825" stroke-linecap="round" stroke-linejoin="round"></path>
                    <polyline id="Stroke-73" stroke="#0266A3" stroke-width="0.825" stroke-linecap="round" stroke-linejoin="round" points="72.2854309 47.2499844 69.356148 47.2499844 69.356148 52.0167656 72.2854309 52.0167656"></polyline>
                    <path d="M62.3085347,47.2499844 L60.8438932,47.2499844 L60.8438932,52.0167656 L62.3085347,52.0167656 C63.1173614,52.0167656 63.7731761,51.3626094 63.7731761,50.5558281 L63.7731761,48.7109219 C63.7731761,47.9041406 63.1173614,47.2499844 62.3085347,47.2499844 Z" id="Stroke-75" stroke="#0266A3" stroke-width="0.825" stroke-linecap="round" stroke-linejoin="round"></path>
                    <path d="M101.707734,47.2499844 L100.243092,47.2499844 L100.243092,50.1718594 L101.707734,50.1718594 C102.516561,50.1718594 103.172375,49.5177031 103.172375,48.7109219 L103.172375,48.7109219 C103.172375,47.9041406 102.516561,47.2499844 101.707734,47.2499844 Z" id="Stroke-77" stroke="#0266A3" stroke-width="0.825" stroke-linecap="round" stroke-linejoin="round"></path>
                    <path d="M47.343311,48.7109219 C47.343311,47.9041406 46.6874962,47.2499844 45.8786695,47.2499844 C45.0698428,47.2499844 44.4140281,47.9041406 44.4140281,48.7109219 L44.4140281,50.5558281 C44.4140281,51.3626094 45.0698428,52.0167656 45.8786695,52.0167656 C46.6874962,52.0167656 47.343311,51.3626094 47.343311,50.5558281" id="Stroke-79" stroke="#0266A3" stroke-width="0.825" stroke-linecap="round"></path>
                    <path d="M86.9860886,48.7109219 C86.9860886,47.9041406 86.3302739,47.2499844 85.5214472,47.2499844 L85.5214472,47.2499844 C84.7126205,47.2499844 84.0568058,47.9041406 84.0568058,48.7109219 L84.0568058,50.5558281 C84.0568058,51.3626094 84.7126205,52.0167656 85.5214472,52.0167656 L85.5214472,52.0167656 C86.3302739,52.0167656 86.9860886,51.3626094 86.9860886,50.5558281" id="Stroke-81" stroke="#0266A3" stroke-width="0.825" stroke-linecap="round"></path>
                    <path d="M69.6146141,49.633375 L71.4883213,49.633375" id="Stroke-83" stroke="#0266A3" stroke-width="0.825" stroke-linecap="round"></path>
                    <path d="M92.3275498,50.1490687 L94.201257,50.1490687" id="Stroke-85" stroke="#0266A3" stroke-width="0.825" stroke-linecap="round"></path>
                    <path d="M119.121976,52.0168 L119.121976,48.7109562 C119.121976,47.904175 118.466161,47.2500187 117.657334,47.2500187 C116.848508,47.2500187 116.192693,47.904175 116.192693,48.7109562 L116.192693,52.0168" id="Stroke-87" stroke="#0266A3" stroke-width="0.825" stroke-linecap="round" stroke-linejoin="round"></path>
                    <path d="M116.720377,50.1490687 L118.594085,50.1490687" id="Stroke-89" stroke="#0266A3" stroke-width="0.825" stroke-linecap="round"></path>
                    <path d="M132.605362,52.0168 L132.605362,48.7109562 C132.605362,47.904175 131.949547,47.2500187 131.14072,47.2500187 L131.14072,47.2500187 C130.331893,47.2500187 129.676079,47.904175 129.676079,48.7109562 L129.676079,52.0168" id="Stroke-91" stroke="#0266A3" stroke-width="0.825" stroke-linecap="round" stroke-linejoin="round"></path>
                    <path d="M108.083232,47.2499844 L111.012515,47.2499844" id="Stroke-93" stroke="#0266A3" stroke-width="0.825" stroke-linecap="round" stroke-linejoin="round"></path>
                    <path d="M100.243092,47.2499844 L100.243092,52.0167656" id="Stroke-95" stroke="#0266A3" stroke-width="0.825" stroke-linecap="round" stroke-linejoin="round"></path>
                    <path d="M109.547873,47.2499844 L109.547873,52.0167656" id="Stroke-97" stroke="#0266A3" stroke-width="0.825" stroke-linecap="round" stroke-linejoin="round"></path>
                    <path d="M124.495935,47.2499844 L124.495935,52.0167656" id="Stroke-99" stroke="#0266A3" stroke-width="0.825" stroke-linecap="round" stroke-linejoin="round"></path>
                </g>
                <g id="分组" transform="translate(0.000000, 13.643437)">
                    <mask id="mask-4" fill="white">
                        <use xlink:href="#path-3"></use>
                    </mask>
                    <g id="Clip-102"></g>
                    <path d="M-2.00682816e-10,20.471 L0.00792629462,35.6479062 C0.00896015916,37.2205625 1.14000797,38.5670312 2.69287251,38.8427187 L2.69287251,38.8427187 L16.249249,41.25 L16.249249,38.4982812 C16.249249,37.0689687 15.1978088,35.8562187 13.7796912,35.649625 L13.7796912,35.649625 L9.30271315,34.9971875 C7.70435857,34.7644687 6.51920518,33.397375 6.51920518,31.7862187 L6.51920518,31.7862187 L6.51920518,23.0879687 C6.51920518,21.745625 7.75915339,20.7453125 9.07491833,21.025125 L9.07491833,21.025125 L17.3858108,22.793375 C20.2551295,23.403875 23.2216315,23.403875 26.0916394,22.793375 L26.0916394,22.793375 L34.401498,21.025125 C35.7176076,20.7453125 36.9572112,21.7459687 36.9572112,23.0879687 L36.9572112,23.0879687 L36.9572112,31.7862187 C36.9572112,33.397375 35.7724024,34.7644687 34.1743924,34.9975312 L34.1743924,34.9975312 L29.6967251,35.649625 C28.2789522,35.8562187 27.227512,37.0693125 27.227512,38.4982812 L27.227512,38.4982812 L27.227512,41.25 L40.7845777,38.8427187 C42.336753,38.5670312 43.4674562,37.2233125 43.4674562,35.6503125 L43.4674562,35.6503125 C43.4678008,32.24925 43.4681454,27.468375 43.4698685,21.1083125 L43.4698685,21.1083125 C43.4719363,11.1467812 36.7345857,2.759625 27.4973506,0.22034375 L27.4973506,0.22034375 L27.0982789,3.150125 C29.7684064,4.89775 31.537004,7.909 31.537004,11.325875 L31.537004,11.325875 C31.537004,16.7151875 27.1413566,21.0997187 21.7383805,21.0997187 L21.7383805,21.0997187 C16.3354044,21.0997187 11.9401016,16.7151875 11.9401016,11.325875 L11.9401016,11.325875 C11.9401016,7.909 13.7083546,4.89775 16.3788267,3.150125 L16.3788267,3.150125 L15.9573546,0.05740625 C6.78732072,2.3436875 -0.0048247014,10.6156875 -2.00682816e-10,20.471" id="Fill-101" fill="url(#linearGradient-5)" mask="url(#mask-4)"></path>
                </g>
            </g>
        </g>
    </g>
</svg>