<svg id="wonder-logo" width="114" height="100" viewBox="0 0 294 92" fill="none" xmlns="http://www.w3.org/2000/svg">
<g><path d="M20.0318 48.3668C21.1701 48.3668 22.2016 47.7618 22.7708 46.8008L36.9636 22.1726L42.7261 32.1378C43.2952 33.1343 44.3624 33.7037 45.4651 33.7037C45.9986 33.7037 46.5322 33.5614 47.0302 33.2767C48.5242 32.4225 49.0577 30.5007 48.1685 28.9703C48.1685 28.9703 39.7026 14.2716 39.667 14.2716C39.418 13.809 39.0267 13.4175 38.5287 13.1684C37.0347 12.2786 35.1139 12.8125 34.2246 14.3072L19.9962 38.9355L5.87452 14.3072C5.02082 12.8125 3.09998 12.2786 1.57043 13.1684C0.0764487 14.0225 -0.457116 15.9444 0.432159 17.4391L17.3284 46.7653C17.862 47.7618 18.8935 48.3668 20.0318 48.3668Z" fill="#F6862D"></path>
<path d="M70.4 20.1084C71.4315 20.1084 72.4631 19.6813 73.1745 18.9339C73.9215 18.2221 74.3128 17.19 74.3128 16.1579C74.3128 15.1258 73.8859 14.0937 73.1745 13.3819C71.7161 11.9227 69.0483 11.9227 67.5899 13.3819C66.8429 14.1293 66.416 15.1258 66.416 16.1579C66.416 17.19 66.8429 18.2221 67.5899 18.9339C68.3369 19.6813 69.3684 20.1084 70.4 20.1084Z" fill="#F6862D"></path>
<path d="M53.8234 49.0786C54.8549 49.0786 55.8865 48.6515 56.6335 47.9041C57.3805 47.1923 57.7718 46.1602 57.7718 45.1281C57.7718 44.096 57.3449 43.0639 56.6335 42.3521C55.1751 40.8929 52.5073 40.8929 51.0488 42.3521C50.3019 43.0995 49.875 44.096 49.875 45.1281C49.875 46.1602 50.3019 47.1923 51.0488 47.9041C51.7603 48.6515 52.7918 49.0786 53.8234 49.0786Z" fill="#F6862D"></path></g>
<g class="wonder-o"><path d="M97.5771 48.6871C87.6527 48.6871 79.5781 40.6081 79.5781 30.6786C79.5781 20.749 87.6527 12.67 97.5771 12.67C107.501 12.67 115.54 20.749 115.54 30.6786C115.54 40.6081 107.466 48.6871 97.5771 48.6871ZM97.5771 19.0406C91.1387 19.0406 85.9098 24.2724 85.9098 30.6786C85.9098 37.0847 91.1387 42.3165 97.5771 42.3165C103.98 42.3165 109.209 37.0847 109.209 30.6786C109.209 24.2368 103.98 19.0406 97.5771 19.0406Z" fill="#F6862D"></path></g>
<g class="wonder-n"><path d="M157.406 48.1176C155.663 48.1176 154.24 46.694 154.24 44.9501V29.1838C154.24 26.0518 153.351 23.4894 151.644 21.781C150.078 20.2507 147.909 19.4321 145.347 19.4321C140.439 19.4321 136.455 23.4182 136.455 28.294V44.9145C136.455 46.6584 135.032 48.082 133.289 48.082C131.546 48.082 130.123 46.6584 130.123 44.9145V16.3358C130.123 14.5919 131.546 13.1683 133.289 13.1683C135.032 13.1683 136.455 14.5919 136.455 16.3358V16.5493C140.119 13.6309 143.462 13.1327 145.347 13.1327C152.924 13.1327 160.572 18.1153 160.572 29.2193V44.9857C160.572 46.694 159.149 48.1176 157.406 48.1176Z" fill="#F6862D"></path></g>
<g class="wonder-d"><path d="M191.341 48.687C181.416 48.687 173.342 40.6081 173.342 30.6785C173.342 20.7489 181.416 12.67 191.341 12.67C195.645 12.67 199.771 14.2004 202.972 16.9764V3.1675C202.972 1.4236 204.395 0 206.138 0C207.881 0 209.304 1.4236 209.304 3.1675V45.0213C209.304 46.7652 207.881 48.1888 206.138 48.1888C204.395 48.1888 202.972 46.7652 202.972 45.0213V44.3806C199.735 47.1567 195.645 48.687 191.341 48.687ZM191.341 19.0406C184.902 19.0406 179.709 24.2723 179.709 30.6785C179.709 37.0847 184.938 42.3164 191.341 42.3164C197.744 42.3164 202.972 37.0847 202.972 30.6785C202.972 24.2367 197.744 19.0406 191.341 19.0406Z" fill="#F6862D"></path></g>
<g class="wonder-e"><path d="M240.999 48.6871C236.196 48.6871 231.679 46.8008 228.3 43.4197C224.885 40.0031 223.035 35.4832 223.035 30.6786C223.035 25.8739 224.92 21.354 228.3 17.9374C231.714 14.5207 236.196 12.67 240.999 12.67C245.801 12.67 250.318 14.5563 253.697 17.9374C257.112 21.3184 258.962 25.8383 258.962 30.6786C258.962 32.4225 257.539 33.8461 255.796 33.8461H229.794C230.327 35.7323 231.359 37.4762 232.782 38.8998C234.987 41.1064 237.904 42.3165 240.999 42.3165C243.915 42.3165 246.548 41.3199 248.646 39.4693C249.251 38.8998 250.034 38.5795 250.887 38.5795C251.705 38.6151 252.488 38.9354 253.093 39.5404C253.697 40.1099 254.018 40.9285 254.018 41.747C254.018 42.1385 253.946 42.53 253.804 42.8859L254.018 43.0994L252.132 44.9857L252.061 44.9145C248.895 47.3346 245.018 48.6871 240.999 48.6871ZM229.794 27.511H252.203C251.67 25.5892 250.674 23.8809 249.215 22.4573C247.01 20.2507 244.093 19.0406 240.963 19.0406C237.868 19.0406 234.916 20.2507 232.746 22.4573C231.323 23.8809 230.327 25.5892 229.794 27.511Z" fill="#F6862D"></path></g>

<g class="wonder-r"><path d="M276.357 48.1176C274.614 48.1176 273.191 46.694 273.191 44.9501V16.3358C273.191 14.5919 274.614 13.1683 276.357 13.1683C278.1 13.1683 279.523 14.5919 279.523 16.3358V16.7985C282.689 14.1648 286.637 12.67 290.835 12.67C292.578 12.67 294 14.0936 294 15.8375C294 17.5815 292.578 19.0051 290.835 19.0051C284.61 19.0051 279.523 24.0944 279.523 30.3227V44.9501C279.523 46.694 278.1 48.1176 276.357 48.1176Z" fill="#F6862D"></path></g>

<path d="M195.61 69.2224C193.689 69.2224 191.911 69.9342 190.559 71.1087V63.6348C190.559 62.8874 189.954 62.2824 189.207 62.2824C188.46 62.2824 187.855 62.8874 187.855 63.6348V85.4515C187.855 86.1989 188.46 86.8039 189.207 86.8039C189.954 86.8039 190.559 86.1989 190.559 85.4515V76.9811V76.9455C190.559 74.1694 192.8 71.9273 195.574 71.9273C198.349 71.9273 200.59 74.1694 200.59 76.9455V85.4515C200.59 86.1989 201.195 86.8039 201.942 86.8039C202.689 86.8039 203.293 86.1989 203.293 85.4515V76.9455C203.329 72.6747 199.843 69.2224 195.61 69.2224Z" fill="#F6862D"></path>
<path d="M68.0168 69.6495C67.3765 69.2936 66.5583 69.5072 66.1671 70.1478L58.8394 82.8534L51.5118 70.1122C51.0138 69.2936 49.6621 69.2936 49.1641 70.1122L41.8365 82.8178L34.5444 70.1122C34.1887 69.4716 33.335 69.2581 32.6947 69.614C32.0545 69.9699 31.841 70.824 32.1967 71.4646L40.6982 86.1633C41.1962 86.9818 42.5479 86.9818 43.0459 86.1633L50.3735 73.4577L57.7012 86.1633C57.9502 86.5904 58.377 86.8395 58.875 86.8395C59.373 86.8395 59.7999 86.5904 60.0489 86.1633L68.5503 71.4646C68.906 70.824 68.657 70.0054 68.0168 69.6495Z" fill="#F6862D"></path>
<path d="M87.8303 69.1868C82.9215 69.1868 78.9375 73.1729 78.9375 78.0843C78.9375 82.9957 82.9215 86.9818 87.8303 86.9818C92.7391 86.9818 96.723 82.9957 96.723 78.0843C96.7586 73.1729 92.7391 69.1868 87.8303 69.1868ZM87.8303 84.3126C84.4154 84.3126 81.6409 81.5365 81.6409 78.1199C81.6409 74.7033 84.4154 71.9273 87.8303 71.9273C91.2451 71.9273 94.0196 74.7033 94.0196 78.1199C94.0552 81.5009 91.2451 84.3126 87.8303 84.3126Z" fill="#F6862D"></path>
<path d="M224.352 69.1868C219.443 69.1868 215.459 73.1729 215.459 78.0843C215.459 82.9957 219.443 86.9818 224.352 86.9818C229.261 86.9818 233.244 82.9957 233.244 78.0843C233.244 73.1729 229.261 69.1868 224.352 69.1868ZM224.352 84.3126C220.937 84.3126 218.162 81.5365 218.162 78.1199C218.162 74.7033 220.937 71.9273 224.352 71.9273C227.767 71.9273 230.541 74.7033 230.541 78.1199C230.541 81.5009 227.767 84.3126 224.352 84.3126Z" fill="#F6862D"></path>
<path d="M254.729 69.1868C252.31 69.1868 250.14 70.1478 248.504 71.7137V70.824C248.504 70.0766 247.899 69.4715 247.152 69.4715C246.405 69.4715 245.801 70.0766 245.801 70.824V90.6476C245.801 91.3949 246.405 92 247.152 92C247.899 92 248.504 91.3949 248.504 90.6476V84.4549C250.105 86.0209 252.31 86.9818 254.729 86.9818C259.638 86.9818 263.622 82.9957 263.622 78.0843C263.622 73.1729 259.638 69.1868 254.729 69.1868ZM254.729 84.3126C251.314 84.3126 248.504 81.5365 248.504 78.1199C248.504 74.7033 251.279 71.9273 254.729 71.9273C258.144 71.9273 260.918 74.7033 260.918 78.1199C260.918 81.5009 258.144 84.3126 254.729 84.3126Z" fill="#F6862D"></path>
<path d="M169.11 76.7319H163.739C162.458 76.7319 161.391 75.6998 161.391 74.383C161.391 73.1018 162.422 72.0696 163.703 72.0696H169.394C169.999 72.0696 170.604 72.3188 171.031 72.7459C171.28 72.995 171.635 73.1373 171.991 73.1373C172.347 73.1373 172.702 72.995 172.951 72.7459C173.485 72.212 173.485 71.3578 172.951 70.824C171.991 69.8987 170.746 69.3648 169.394 69.3648H163.703C160.928 69.3648 158.688 71.607 158.688 74.383C158.688 77.159 160.928 79.4012 163.703 79.4012H169.074C170.355 79.4012 171.422 80.4333 171.422 81.7145C171.422 82.9958 170.39 84.0279 169.074 84.0279H163.383C162.743 84.0279 162.173 83.7787 161.747 83.3517C161.213 82.8178 160.359 82.8178 159.826 83.3517C159.292 83.8855 159.292 84.7397 159.826 85.2735C160.786 86.1989 162.031 86.7327 163.383 86.7327H169.074C171.849 86.7327 174.125 84.4905 174.125 81.7145C174.125 79.0097 171.884 76.7319 169.11 76.7319Z" fill="#F6862D"></path>
<path d="M118.99 69.4004C116.643 69.4004 114.544 70.3257 112.979 71.8205V70.824C112.979 70.0766 112.374 69.4716 111.627 69.4716C110.88 69.4716 110.275 70.0766 110.275 70.824V78.0487V78.0843V85.4515C110.275 86.1988 110.88 86.8039 111.627 86.8039C112.374 86.8039 112.979 86.1988 112.979 85.4515V78.0487C113.014 74.7389 115.682 72.1052 118.99 72.1052C119.737 72.1052 120.342 71.5002 120.342 70.7528C120.342 70.041 119.737 69.4004 118.99 69.4004Z" fill="#F6862D"></path>
<path d="M139.407 78.1199L146.522 71.8205C147.091 71.3223 147.126 70.4681 146.628 69.8987C146.13 69.3292 145.277 69.2936 144.707 69.7919L136.811 76.7675H135.317V63.6348C135.317 62.8874 134.712 62.2824 133.965 62.2824C133.218 62.2824 132.613 62.8874 132.613 63.6348V78.1199C132.613 78.1199 132.613 78.1199 132.613 78.1555V85.4515C132.613 86.1989 133.218 86.8039 133.965 86.8039C134.712 86.8039 135.317 86.1989 135.317 85.4515V79.4724H136.811L144.707 86.448C144.956 86.6615 145.277 86.7683 145.597 86.7683C145.952 86.7683 146.344 86.6259 146.593 86.3056C147.091 85.7362 147.02 84.882 146.486 84.4194L139.407 78.1199Z" fill="#F6862D"></path>
</svg>